<svg xmlns="http://www.w3.org/2000/svg" viewBox="0 0 48 48" width="48" height="48" baseProfile="basic"><path fill="#554942" d="M21.08 10.998S12.2 8.949 12.2 3.689c0-1.093.615-2.391 2.391-2.323s7.378 3.689 7.378 3.689z"/><linearGradient id="a" x1="19.574" x2="26.978" y1="9.787" y2="39.404" gradientUnits="userSpaceOnUse"><stop offset="0" stop-color="#eeb597"/><stop offset="1" stop-color="#ffd0ad"/></linearGradient><path fill="url(#a)" d="M39 24.455a3.21 3.21 0 0 0-3.211-3.211c-.295 0-.576.053-.848.128-.13-2.367-.223-5.244-.223-8.689-4.281-6.421-13.913-6.421-13.913-6.421s-.342 10.748-8.197 19.287l.01.003-.016.009c-1.678 2.006-2.498 5.018-2.498 7.992C10.104 41.531 16.573 48 24.552 48c4.238 0 8.233-1.667 10.692-4.731 4.655-5.8 1.364-11.875.796-13.793a23 23 0 0 1-.464-1.832c.072.005.14.021.213.021A3.21 3.21 0 0 0 39 24.455"/><circle cx="21.877" cy="15.894" r="3.211" fill="#fff"/><path fill="#705f55" d="M21.08 6.285S22.788 0 28.048 0s7.742 6.102 6.672 12.683c-2.753-3.597-11.796-6.33-13.64-6.398"/><path fill="#3d4144" d="M18.962 23.431s1.844 4.235 8.266-.046c0 5.351-1.07 9.632-4.281 9.632-4.281 0-3.985-9.586-3.985-9.586"/><path fill="#bc8771" d="M24.5 22h-3a.5.5 0 0 1-.499-.468c-.149-2.355 1.264-3.516 2.73-3.622a.501.501 0 0 1 .072.997c-.859.062-1.738.651-1.81 2.093H24.5a.5.5 0 0 1 0 1"/><circle cx="27.228" cy="17.034" r="3.211" fill="#fff"/><path fill="#bc8771" d="M22.092 39.426a6 6 0 0 1-2.889-.73c-1.63-.887-2.643-2.447-2.643-4.073a.5.5 0 0 1 1 0c0 1.259.812 2.483 2.12 3.194 1.717.935 3.835.782 5.67-.403a.5.5 0 0 1 .543.839c-1.203.778-2.518 1.173-3.801 1.173"/><path fill="#897e79" d="M14.59 1.366s2.323 1.093 4.167 3.689 4.121 7.879 15.962 7.628C32.898 7.651 14.59 1.366 14.59 1.366"/><circle cx="27" cy="17" r="1" fill="#43484b"/><circle cx="22" cy="16" r="1" fill="#43484b"/><path fill="#fff" d="M23.731 25.077c-1.143.307-2.04.258-2.731.042V27h2zM24 30h-2v2.835c.288.116.601.182.947.182.723 0 1.332-.227 1.851-.625z"/><path fill="#ffd0ad" d="m15.5 38.5 2.399-1.402"/><path fill="#bc8771" d="M15.5 39a.5.5 0 0 1-.252-.932l2.399-1.401a.5.5 0 0 1 .684.18.5.5 0 0 1-.18.684l-2.399 1.401A.5.5 0 0 1 15.5 39"/><path fill="#ffd0ad" d="m17.875 40.21 1.388-2.058"/><path fill="#bc8771" d="M17.875 40.71a.498.498 0 0 1-.414-.779l1.389-2.059a.499.499 0 1 1 .828.558l-1.389 2.059a.5.5 0 0 1-.414.221"/><path fill="#ffd0ad" d="M31.921 36.242 30.5 34.5"/><path fill="#bc8771" d="M31.921 36.742a.5.5 0 0 1-.388-.184l-1.421-1.742a.501.501 0 0 1 .775-.633l1.421 1.742a.501.501 0 0 1-.387.817"/><path fill="#ffd0ad" d="m33.5 33.5-1-1"/><path fill="#bc8771" d="M33.5 34a.5.5 0 0 1-.354-.146l-1-1a.5.5 0 0 1 .707-.707l1 1A.5.5 0 0 1 33.5 34"/></svg>